<svg xmlns="http://www.w3.org/2000/svg" width="11.67" height="136" viewBox="0 0 11.67 136" fill="#bd0f0f" preserveAspectRatio="none"><path d="M7.35 136h2.58c.5-1.47.54-1.48.58-.17v.17h1.17V0H1.51c.05 1.3.11 2.72.17 4.29.14 3.71-.05 5.62-.68 6.4-.67.95-.59 1.31.56 2.31.83.72 1.1 1.36.7 1.66s-.72 1.79-.8 3.38-.36 4.11-.62 5.61c-.31 1.81-.24 2.73.23 2.74s.71-.57.72-1.28.3-1.29.64-1.28c.87 0 2.05 2.45 1.37 2.86-.3.18-.76 2.76-1 5.73A45 45 0 0 1 1 41.58c-1.4 4-1.36 4.93.2 4.36 1.19-.44 1.18-.23-.12 2.29C-.37 51.07.24 56 2.05 56c.69 0 1.25.3 1.24.66s-.57.63-1.25.62c-1.15 0-1.23.36-1 4.66a44.42 44.42 0 0 0 1.23 8.16c.81 2.79 1.22 3.39 2.19 3.15 1.62-.4 1.76.06 1.13 3.77-.31 1.81-.3 3.31 0 3.44.79.3.7 2.05-.09 2-1.2 0-.68 1.12.68 1.5 1.11.3 1.28.74 1 2.59a10.9 10.9 0 0 1-.78 2.94c-.65 1-1.67.85-1.65-.28 0-.53.3-1 .66-1a.64.64 0 0 0 .65-.63c0-.36-.53-.66-1.19-.66-.86 0-1.17.39-1.07 1.43.07.8.18 2.76.23 4.35l.1 2.9.67-2c1.06-3.5 2.53-2.22 2.47 2.14a3.93 3.93 0 0 0 .56 2.54c.76.49.35 12.61-.47 13.88s-1 6-.28 6.47c.29.21.44 5.43.35 11.6-.03 2-.06 3.97-.08 5.77zM2.17 43.79a.64.64 0 0 1-.63-.65.65.65 0 0 1 .65-.64.66.66 0 0 1 .64.66.65.65 0 0 1-.66.63zM9.84 95.4c.05-3.36.3-5.05.72-4.78a.77.77 0 0 1 .23 1.07c-.23.37 0 1.85.4 3.3.6 1.88.63 2.7.11 2.86s-.58.8-.4 1.49 0 1.26-.41 1.26c-.49-.01-.7-1.81-.65-5.2zm-.17 11.34c.42-1.15.49-1.12.85.32a2.69 2.69 0 0 1-.16 2.1c-.77.75-1.25-.93-.69-2.42zm.38 20.26c.36 0 .63.9.62 2s-.29 1.8-.67 1.57a2.72 2.72 0 0 1-.61-2c.01-.87.31-1.57.66-1.57zM8 39.36a.68.68 0 0 1 .68.66c0 .35-.14.64-.3.64s-.45-.3-.67-.66-.09-.64.29-.64zm0 1.93c.35 0 .63.45.63 1s-.31 1-.66 1-.64-.45-.63-1 .31-1 .66-1zM4.79 64.86c-2.09-1-2.07-2.7 0-2.85 1.38-.09 1.61.16 1.59 1.76s-.09 1.82-1.59 1.09zm.77-3.74a2.31 2.31 0 0 1-1.88-.5c-.51-.51-.42-.71.31-.7s1-.6 1-2.08a96.85 96.85 0 0 1 1.37-10.93 12 12 0 0 0 .22-1.45 1.13 1.13 0 0 1 2.21-.07 2.31 2.31 0 0 1-.27 1.77 14.86 14.86 0 0 0-.69 4.76c-.15 5.97-.89 8.96-2.27 9.2zm2.62 33c-.14 0-.25-.44-.24-1s.29-1 .64-1 .45.44.24 1-.5 1-.64 1z"/></svg>